M48
; DRILL file {KiCad (5.1.10)-1} date 10/01/22 12:25:05
; FORMAT={-:-/ absolute / metric / decimal}
; #@! TF.CreationDate,2022-10-01T12:25:05+09:00
; #@! TF.GenerationSoftware,Kicad,Pcbnew,(5.1.10)-1
FMAT,2
METRIC
T1C0.400
T2C0.750
T3C1.000
T4C3.000
T5C3.200
%
G90
G05
T1
X26.5Y-9.0
X26.5Y-11.0
X26.5Y-17.5
X27.0Y-10.0
X27.0Y-18.5
X27.5Y-9.0
X27.5Y-11.0
X27.5Y-17.5
X28.0Y-10.0
X28.0Y-18.5
X28.5Y-9.0
X28.5Y-11.0
X28.5Y-17.5
X29.0Y-10.0
X29.0Y-18.5
X29.5Y-9.0
X29.5Y-11.0
X29.5Y-17.5
X30.0Y-18.5
X30.1Y-29.75
X30.1Y-22.1
X30.8Y-6.2
X32.0Y-17.0
X32.0Y-18.0
X32.635Y-22.065
X33.0Y-17.0
X33.0Y-18.0
X33.5Y-38.0
X33.9Y-27.0
X34.0Y-17.0
X34.0Y-18.0
X35.845Y-75.405
X35.865Y-74.135
X35.865Y-72.865
X35.905Y-71.595
X36.0Y-6.5
X37.5Y-35.0
X38.5Y-9.0
X38.5Y-11.0
X38.5Y-17.5
X38.5Y-37.0
X39.0Y-57.25
X39.0Y-10.0
X39.0Y-18.5
X39.5Y-9.0
X39.5Y-11.0
X39.5Y-17.5
X40.0Y-10.0
X40.0Y-18.5
X40.5Y-9.0
X40.5Y-11.0
X40.5Y-17.5
X41.0Y-10.0
X41.0Y-18.5
X41.25Y-61.0
X41.5Y-9.0
X41.5Y-11.0
X41.5Y-17.5
X41.5Y-79.0
X41.75Y-70.5
X41.75Y-71.5
X42.0Y-18.5
X42.0Y-53.25
X42.0Y-55.0
X42.1Y-22.1
X42.1Y-29.75
X42.8Y-6.2
X43.0Y-47.25
X43.25Y-53.75
X43.25Y-52.25
X43.25Y-55.75
X43.25Y-83.5
X43.25Y-91.25
X44.0Y-17.0
X44.0Y-18.0
X44.0Y-58.0
X44.635Y-22.065
X44.75Y-50.0
X45.0Y-17.0
X45.0Y-18.0
X45.0Y-86.5
X45.5Y-38.0
X45.635Y-50.865
X45.9Y-27.0
X46.0Y-17.0
X46.0Y-18.0
X46.5Y-80.25
X46.75Y-58.75
X46.75Y-83.5
X46.905Y-91.345
X47.737Y-86.487
X47.75Y-79.5
X48.0Y-6.5
X48.247Y-75.752
X48.25Y-63.25
X49.25Y-75.75
X49.5Y-35.0
X49.75Y-78.5
X49.75Y-60.0
X50.0Y-86.5
X50.25Y-75.75
X50.5Y-9.0
X50.5Y-11.0
X50.5Y-17.5
X50.5Y-37.0
X50.5Y-46.0
X50.5Y-44.75
X51.0Y-10.0
X51.0Y-18.5
X51.25Y-42.25
X51.25Y-43.75
X51.25Y-58.75
X51.25Y-75.75
X51.25Y-86.25
X51.5Y-9.0
X51.5Y-11.0
X51.5Y-17.5
X51.977Y-40.977
X52.0Y-10.0
X52.0Y-18.5
X52.0Y-58.0
X52.5Y-9.0
X52.5Y-11.0
X52.5Y-17.5
X52.75Y-62.25
X52.75Y-86.25
X53.0Y-10.0
X53.0Y-18.5
X53.5Y-9.0
X53.5Y-11.0
X53.5Y-17.5
X53.5Y-57.25
X53.75Y-44.0
X53.75Y-54.25
X53.75Y-55.75
X54.0Y-18.5
X54.026Y-59.69
X54.1Y-22.1
X54.1Y-29.75
X54.75Y-50.75
X54.75Y-52.25
X54.75Y-55.0
X54.75Y-49.75
X54.75Y-53.418
X54.8Y-6.2
X55.0Y-61.5
X56.0Y-17.0
X56.0Y-18.0
X56.5Y-41.25
X56.635Y-22.065
X57.0Y-17.0
X57.0Y-18.0
X57.0Y-65.5
X57.0Y-66.5
X57.0Y-69.5
X57.5Y-38.0
X57.75Y-60.0
X57.9Y-27.0
X58.0Y-17.0
X58.0Y-18.0
X58.25Y-53.5
X58.25Y-62.25
X58.5Y-40.0
X59.0Y-69.5
X59.75Y-53.5
X60.0Y-6.5
X60.95Y-65.412
X60.995Y-66.411
X61.0Y-42.25
X61.0Y-47.5
X61.0Y-48.75
X61.5Y-35.0
X62.0Y-44.75
X62.5Y-9.0
X62.5Y-11.0
X62.5Y-17.5
X62.5Y-37.0
X62.75Y-77.5
X63.0Y-10.0
X63.0Y-18.5
X63.5Y-9.0
X63.5Y-11.0
X63.5Y-17.5
X63.5Y-91.5
X64.0Y-10.0
X64.0Y-18.5
X64.0Y-65.5
X64.5Y-9.0
X64.5Y-11.0
X64.5Y-17.5
X64.75Y-62.0
X65.0Y-10.0
X65.0Y-18.5
X65.0Y-45.75
X65.5Y-9.0
X65.5Y-11.0
X65.5Y-17.5
X66.0Y-18.5
X66.0Y-43.25
X66.0Y-62.25
X66.1Y-22.1
X66.1Y-29.75
X66.25Y-55.0
X66.8Y-6.2
X67.25Y-50.75
X67.5Y-91.5
X68.0Y-17.0
X68.0Y-18.0
X68.6Y-22.1
X69.0Y-17.0
X69.0Y-18.0
X69.0Y-54.0
X69.25Y-55.75
X69.25Y-57.75
X69.5Y-38.0
X69.5Y-71.5
X69.75Y-41.25
X69.75Y-65.5
X69.805Y-56.582
X69.805Y-58.582
X69.9Y-27.0
X70.0Y-17.0
X70.0Y-18.0
X70.5Y-70.5
X71.75Y-40.0
X72.0Y-6.5
X72.75Y-48.75
X73.0Y-9.0
X73.0Y-9.75
X73.0Y-10.5
X73.0Y-11.25
X73.0Y-12.0
X73.0Y-12.75
X73.0Y-13.5
X73.0Y-14.25
X73.025Y-58.582
X73.25Y-35.0
X73.75Y-9.0
X73.75Y-9.75
X73.75Y-10.5
X73.75Y-14.25
X73.75Y-57.75
X74.25Y-37.0
X74.5Y-9.0
X74.5Y-9.75
X74.5Y-10.5
X74.5Y-14.25
X75.25Y-9.0
X75.25Y-9.75
X75.25Y-10.5
X75.25Y-14.25
X75.75Y-78.5
X76.0Y-9.0
X76.0Y-9.75
X76.0Y-10.5
X76.0Y-14.25
X76.0Y-67.5
X76.75Y-9.0
X76.75Y-9.75
X76.75Y-10.5
X76.75Y-14.25
X77.5Y-55.75
X77.5Y-9.0
X77.5Y-9.75
X77.5Y-10.5
X77.5Y-14.25
X78.25Y-9.0
X78.25Y-9.75
X78.25Y-10.5
X78.25Y-11.25
X78.25Y-12.0
X78.25Y-12.75
X78.25Y-13.5
X78.25Y-14.25
X78.5Y-47.25
X78.5Y-56.5
X78.5Y-87.25
X78.75Y-38.5
X79.56Y-37.664
X79.75Y-54.0
X80.0Y-85.5
X80.5Y-28.5
X80.75Y-9.0
X80.75Y-9.75
X80.75Y-10.5
X80.75Y-11.25
X80.75Y-12.0
X80.75Y-12.75
X80.75Y-13.5
X80.75Y-14.25
X80.893Y-84.806
X81.5Y-9.0
X81.5Y-9.75
X81.5Y-10.5
X81.5Y-14.25
X81.5Y-43.5
X82.243Y-89.75
X82.25Y-9.0
X82.25Y-9.75
X82.25Y-10.5
X82.25Y-14.25
X82.75Y-81.25
X83.0Y-9.0
X83.0Y-9.75
X83.0Y-10.5
X83.0Y-14.25
X83.25Y-38.0
X83.25Y-43.5
X83.75Y-9.0
X83.75Y-9.75
X83.75Y-10.5
X83.75Y-14.25
X84.5Y-9.0
X84.5Y-9.75
X84.5Y-10.5
X84.5Y-14.25
X84.75Y-29.75
X85.0Y-89.75
X85.25Y-9.0
X85.25Y-9.75
X85.25Y-10.5
X85.25Y-14.25
X86.0Y-9.0
X86.0Y-9.75
X86.0Y-10.5
X86.0Y-11.25
X86.0Y-12.0
X86.0Y-12.75
X86.0Y-13.5
X86.0Y-14.25
X86.0Y-30.5
X87.962Y-47.212
X88.75Y-41.25
X89.5Y-35.5
X90.1Y-20.5
X91.5Y-59.75
X92.25Y-65.5
X92.5Y-39.75
X93.25Y-44.25
X93.25Y-48.25
X94.5Y-23.53
T2
X25.0Y-96.5
X27.0Y-96.5
X29.0Y-96.5
X31.0Y-96.5
X33.0Y-96.5
X35.0Y-96.5
X45.5Y-96.5
X47.5Y-96.5
X49.5Y-96.5
X51.5Y-96.5
X62.5Y-96.5
X64.5Y-96.5
X66.5Y-96.5
X68.5Y-96.5
X79.0Y-96.0
X79.0Y-98.0
X81.0Y-96.0
X81.0Y-98.0
X83.0Y-96.0
X83.0Y-98.0
X85.0Y-96.0
X85.0Y-98.0
T3
X2.54Y-10.16
X2.54Y-12.7
X2.54Y-15.24
X2.54Y-17.78
X2.54Y-20.32
X2.54Y-22.86
X2.54Y-25.4
X2.54Y-27.94
X2.54Y-30.48
X2.54Y-33.02
X2.54Y-35.56
X2.54Y-38.1
X2.54Y-40.64
X2.54Y-43.18
X2.54Y-45.72
X2.54Y-48.26
X2.54Y-50.8
X2.54Y-53.34
X2.54Y-55.88
X2.54Y-58.42
X2.54Y-60.96
X2.54Y-63.5
X2.54Y-66.04
X2.54Y-68.58
X2.54Y-71.12
X2.54Y-73.66
X2.54Y-76.2
X2.54Y-78.74
X2.54Y-81.28
X2.54Y-83.82
X2.54Y-86.36
X2.54Y-88.9
X5.08Y-10.16
X5.08Y-12.7
X5.08Y-15.24
X5.08Y-17.78
X5.08Y-20.32
X5.08Y-22.86
X5.08Y-25.4
X5.08Y-27.94
X5.08Y-30.48
X5.08Y-33.02
X5.08Y-35.56
X5.08Y-38.1
X5.08Y-40.64
X5.08Y-43.18
X5.08Y-45.72
X5.08Y-48.26
X5.08Y-50.8
X5.08Y-53.34
X5.08Y-55.88
X5.08Y-58.42
X5.08Y-60.96
X5.08Y-63.5
X5.08Y-66.04
X5.08Y-68.58
X5.08Y-71.12
X5.08Y-73.66
X5.08Y-76.2
X5.08Y-78.74
X5.08Y-81.28
X5.08Y-83.82
X5.08Y-86.36
X5.08Y-88.9
X7.62Y-10.16
X7.62Y-12.7
X7.62Y-15.24
X7.62Y-17.78
X7.62Y-20.32
X7.62Y-22.86
X7.62Y-25.4
X7.62Y-27.94
X7.62Y-30.48
X7.62Y-33.02
X7.62Y-35.56
X7.62Y-38.1
X7.62Y-40.64
X7.62Y-43.18
X7.62Y-45.72
X7.62Y-48.26
X7.62Y-50.8
X7.62Y-53.34
X7.62Y-55.88
X7.62Y-58.42
X7.62Y-60.96
X7.62Y-63.5
X7.62Y-66.04
X7.62Y-68.58
X7.62Y-71.12
X7.62Y-73.66
X7.62Y-76.2
X7.62Y-78.74
X7.62Y-81.28
X7.62Y-83.82
X7.62Y-86.36
X7.62Y-88.9
X10.16Y-10.16
X10.16Y-12.7
X10.16Y-15.24
X10.16Y-17.78
X10.16Y-20.32
X10.16Y-22.86
X10.16Y-25.4
X10.16Y-27.94
X10.16Y-30.48
X10.16Y-33.02
X10.16Y-35.56
X10.16Y-38.1
X10.16Y-40.64
X10.16Y-43.18
X10.16Y-45.72
X10.16Y-48.26
X10.16Y-50.8
X10.16Y-53.34
X10.16Y-55.88
X10.16Y-58.42
X10.16Y-60.96
X10.16Y-63.5
X10.16Y-66.04
X10.16Y-68.58
X10.16Y-71.12
X10.16Y-73.66
X10.16Y-76.2
X10.16Y-78.74
X10.16Y-81.28
X10.16Y-83.82
X10.16Y-86.36
X10.16Y-88.9
X12.7Y-10.16
X12.7Y-12.7
X12.7Y-15.24
X12.7Y-17.78
X12.7Y-20.32
X12.7Y-22.86
X12.7Y-25.4
X12.7Y-27.94
X12.7Y-30.48
X12.7Y-33.02
X12.7Y-35.56
X12.7Y-38.1
X12.7Y-40.64
X12.7Y-43.18
X12.7Y-45.72
X12.7Y-48.26
X12.7Y-50.8
X12.7Y-53.34
X12.7Y-55.88
X12.7Y-58.42
X12.7Y-60.96
X12.7Y-63.5
X12.7Y-66.04
X12.7Y-68.58
X12.7Y-71.12
X12.7Y-73.66
X12.7Y-76.2
X12.7Y-78.74
X12.7Y-81.28
X12.7Y-83.82
X12.7Y-86.36
X12.7Y-88.9
X15.24Y-10.16
X15.24Y-12.7
X15.24Y-15.24
X15.24Y-17.78
X15.24Y-20.32
X15.24Y-22.86
X15.24Y-25.4
X15.24Y-27.94
X15.24Y-30.48
X15.24Y-33.02
X15.24Y-35.56
X15.24Y-38.1
X15.24Y-40.64
X15.24Y-43.18
X15.24Y-45.72
X15.24Y-48.26
X15.24Y-50.8
X15.24Y-53.34
X15.24Y-55.88
X15.24Y-58.42
X15.24Y-60.96
X15.24Y-63.5
X15.24Y-66.04
X15.24Y-68.58
X15.24Y-71.12
X15.24Y-73.66
X15.24Y-76.2
X15.24Y-78.74
X15.24Y-81.28
X15.24Y-83.82
X15.24Y-86.36
X15.24Y-88.9
X17.78Y-10.16
X17.78Y-12.7
X17.78Y-15.24
X17.78Y-17.78
X17.78Y-20.32
X17.78Y-22.86
X17.78Y-25.4
X17.78Y-27.94
X17.78Y-30.48
X17.78Y-33.02
X17.78Y-35.56
X17.78Y-38.1
X17.78Y-40.64
X17.78Y-43.18
X17.78Y-45.72
X17.78Y-48.26
X17.78Y-50.8
X17.78Y-53.34
X17.78Y-55.88
X17.78Y-58.42
X17.78Y-60.96
X17.78Y-63.5
X17.78Y-66.04
X17.78Y-68.58
X17.78Y-71.12
X17.78Y-73.66
X17.78Y-76.2
X17.78Y-78.74
X17.78Y-81.28
X17.78Y-83.82
X17.78Y-86.36
X17.78Y-88.9
X20.32Y-10.16
X20.32Y-12.7
X20.32Y-15.24
X20.32Y-17.78
X20.32Y-20.32
X20.32Y-22.86
X20.32Y-25.4
X20.32Y-27.94
X20.32Y-30.48
X20.32Y-33.02
X20.32Y-35.56
X20.32Y-38.1
X20.32Y-40.64
X20.32Y-43.18
X20.32Y-45.72
X20.32Y-48.26
X20.32Y-50.8
X20.32Y-53.34
X20.32Y-55.88
X20.32Y-58.42
X20.32Y-60.96
X20.32Y-63.5
X20.32Y-66.04
X20.32Y-68.58
X20.32Y-71.12
X20.32Y-73.66
X20.32Y-76.2
X20.32Y-78.74
X20.32Y-81.28
X20.32Y-83.82
X20.32Y-86.36
X20.32Y-88.9
T4
X28.0Y-3.5
X40.0Y-3.5
X52.0Y-3.5
X64.0Y-3.5
X76.0Y-3.5
X83.0Y-3.5
T5
X3.0Y-3.0
X3.0Y-97.0
X97.0Y-3.0
X97.0Y-97.0
T0
M30
