%TF.GenerationSoftware,KiCad,Pcbnew,(5.1.10)-1*%
%TF.CreationDate,2022-10-01T12:24:56+09:00*%
%TF.ProjectId,quadBLDC,71756164-424c-4444-932e-6b696361645f,rev?*%
%TF.SameCoordinates,Original*%
%TF.FileFunction,Soldermask,Bot*%
%TF.FilePolarity,Negative*%
%FSLAX46Y46*%
G04 Gerber Fmt 4.6, Leading zero omitted, Abs format (unit mm)*
G04 Created by KiCad (PCBNEW (5.1.10)-1) date 2022-10-01 12:24:56*
%MOMM*%
%LPD*%
G01*
G04 APERTURE LIST*
%ADD10C,2.000000*%
%ADD11C,3.200000*%
%ADD12O,1.200000X1.750000*%
%ADD13C,1.200000*%
G04 APERTURE END LIST*
D10*
%TO.C,REF\u002A\u002A*%
X5080000Y-12700000D03*
%TD*%
%TO.C,REF\u002A\u002A*%
X15240000Y-86360000D03*
%TD*%
%TO.C,REF\u002A\u002A*%
X20320000Y-12700000D03*
%TD*%
%TO.C,REF\u002A\u002A*%
X15240000Y-12700000D03*
%TD*%
%TO.C,REF\u002A\u002A*%
X10160000Y-86360000D03*
%TD*%
%TO.C,REF\u002A\u002A*%
X10160000Y-81280000D03*
%TD*%
%TO.C,REF\u002A\u002A*%
X20320000Y-86360000D03*
%TD*%
%TO.C,REF\u002A\u002A*%
X5080000Y-81280000D03*
%TD*%
%TO.C,REF\u002A\u002A*%
X12700000Y-86360000D03*
%TD*%
%TO.C,REF\u002A\u002A*%
X17780000Y-83820000D03*
%TD*%
%TO.C,REF\u002A\u002A*%
X2540000Y-83820000D03*
%TD*%
%TO.C,REF\u002A\u002A*%
X15240000Y-81280000D03*
%TD*%
%TO.C,REF\u002A\u002A*%
X20320000Y-83820000D03*
%TD*%
%TO.C,REF\u002A\u002A*%
X15240000Y-83820000D03*
%TD*%
%TO.C,REF\u002A\u002A*%
X7620000Y-83820000D03*
%TD*%
%TO.C,REF\u002A\u002A*%
X17780000Y-81280000D03*
%TD*%
%TO.C,REF\u002A\u002A*%
X5080000Y-83820000D03*
%TD*%
%TO.C,REF\u002A\u002A*%
X2540000Y-86360000D03*
%TD*%
%TO.C,REF\u002A\u002A*%
X7620000Y-86360000D03*
%TD*%
%TO.C,REF\u002A\u002A*%
X10160000Y-83820000D03*
%TD*%
%TO.C,REF\u002A\u002A*%
X20320000Y-81280000D03*
%TD*%
%TO.C,REF\u002A\u002A*%
X12700000Y-83820000D03*
%TD*%
%TO.C,REF\u002A\u002A*%
X2540000Y-81280000D03*
%TD*%
%TO.C,REF\u002A\u002A*%
X7620000Y-81280000D03*
%TD*%
%TO.C,REF\u002A\u002A*%
X17780000Y-86360000D03*
%TD*%
%TO.C,REF\u002A\u002A*%
X5080000Y-86360000D03*
%TD*%
%TO.C,REF\u002A\u002A*%
X12700000Y-81280000D03*
%TD*%
%TO.C,REF\u002A\u002A*%
X12700000Y-12700000D03*
%TD*%
%TO.C,REF\u002A\u002A*%
X2540000Y-12700000D03*
%TD*%
%TO.C,REF\u002A\u002A*%
X10160000Y-12700000D03*
%TD*%
%TO.C,REF\u002A\u002A*%
X17780000Y-12700000D03*
%TD*%
%TO.C,REF\u002A\u002A*%
X20320000Y-10160000D03*
%TD*%
%TO.C,REF\u002A\u002A*%
X7620000Y-10160000D03*
%TD*%
%TO.C,REF\u002A\u002A*%
X15240000Y-10160000D03*
%TD*%
%TO.C,REF\u002A\u002A*%
X7620000Y-12700000D03*
%TD*%
%TO.C,REF\u002A\u002A*%
X12700000Y-10160000D03*
%TD*%
%TO.C,REF\u002A\u002A*%
X5080000Y-10160000D03*
%TD*%
%TO.C,REF\u002A\u002A*%
X17780000Y-10160000D03*
%TD*%
%TO.C,REF\u002A\u002A*%
X2540000Y-10160000D03*
%TD*%
%TO.C,REF\u002A\u002A*%
X10160000Y-10160000D03*
%TD*%
%TO.C,REF\u002A\u002A*%
X2540000Y-40640000D03*
%TD*%
%TO.C,REF\u002A\u002A*%
X12700000Y-43180000D03*
%TD*%
%TO.C,REF\u002A\u002A*%
X5080000Y-45720000D03*
%TD*%
%TO.C,REF\u002A\u002A*%
X7620000Y-48260000D03*
%TD*%
%TO.C,REF\u002A\u002A*%
X5080000Y-43180000D03*
%TD*%
%TO.C,REF\u002A\u002A*%
X10160000Y-48260000D03*
%TD*%
%TO.C,REF\u002A\u002A*%
X5080000Y-40640000D03*
%TD*%
%TO.C,REF\u002A\u002A*%
X12700000Y-40640000D03*
%TD*%
%TO.C,REF\u002A\u002A*%
X5080000Y-48260000D03*
%TD*%
%TO.C,REF\u002A\u002A*%
X17780000Y-43180000D03*
%TD*%
%TO.C,REF\u002A\u002A*%
X17780000Y-48260000D03*
%TD*%
%TO.C,REF\u002A\u002A*%
X2540000Y-45720000D03*
%TD*%
%TO.C,REF\u002A\u002A*%
X20320000Y-43180000D03*
%TD*%
%TO.C,REF\u002A\u002A*%
X17780000Y-45720000D03*
%TD*%
%TO.C,REF\u002A\u002A*%
X10160000Y-43180000D03*
%TD*%
%TO.C,REF\u002A\u002A*%
X7620000Y-43180000D03*
%TD*%
%TO.C,REF\u002A\u002A*%
X15240000Y-48260000D03*
%TD*%
%TO.C,REF\u002A\u002A*%
X20320000Y-40640000D03*
%TD*%
%TO.C,REF\u002A\u002A*%
X20320000Y-45720000D03*
%TD*%
%TO.C,REF\u002A\u002A*%
X10160000Y-40640000D03*
%TD*%
%TO.C,REF\u002A\u002A*%
X7620000Y-40640000D03*
%TD*%
%TO.C,REF\u002A\u002A*%
X2540000Y-43180000D03*
%TD*%
%TO.C,REF\u002A\u002A*%
X17780000Y-40640000D03*
%TD*%
%TO.C,REF\u002A\u002A*%
X15240000Y-40640000D03*
%TD*%
%TO.C,REF\u002A\u002A*%
X15240000Y-43180000D03*
%TD*%
%TO.C,REF\u002A\u002A*%
X12700000Y-48260000D03*
%TD*%
%TO.C,REF\u002A\u002A*%
X15240000Y-76200000D03*
%TD*%
%TO.C,REF\u002A\u002A*%
X10160000Y-76200000D03*
%TD*%
%TO.C,REF\u002A\u002A*%
X10160000Y-78740000D03*
%TD*%
%TO.C,REF\u002A\u002A*%
X12700000Y-76200000D03*
%TD*%
%TO.C,REF\u002A\u002A*%
X20320000Y-76200000D03*
%TD*%
%TO.C,REF\u002A\u002A*%
X20320000Y-78740000D03*
%TD*%
%TO.C,REF\u002A\u002A*%
X7620000Y-78740000D03*
%TD*%
%TO.C,REF\u002A\u002A*%
X12700000Y-78740000D03*
%TD*%
%TO.C,REF\u002A\u002A*%
X15240000Y-78740000D03*
%TD*%
%TO.C,REF\u002A\u002A*%
X7620000Y-76200000D03*
%TD*%
%TO.C,REF\u002A\u002A*%
X2540000Y-78740000D03*
%TD*%
%TO.C,REF\u002A\u002A*%
X2540000Y-76200000D03*
%TD*%
%TO.C,REF\u002A\u002A*%
X17780000Y-76200000D03*
%TD*%
%TO.C,REF\u002A\u002A*%
X5080000Y-76200000D03*
%TD*%
%TO.C,REF\u002A\u002A*%
X17780000Y-78740000D03*
%TD*%
%TO.C,REF\u002A\u002A*%
X5080000Y-78740000D03*
%TD*%
%TO.C,REF\u002A\u002A*%
X2540000Y-73660000D03*
%TD*%
%TO.C,REF\u002A\u002A*%
X20320000Y-73660000D03*
%TD*%
%TO.C,REF\u002A\u002A*%
X15240000Y-71120000D03*
%TD*%
%TO.C,REF\u002A\u002A*%
X10160000Y-71120000D03*
%TD*%
%TO.C,REF\u002A\u002A*%
X12700000Y-71120000D03*
%TD*%
%TO.C,REF\u002A\u002A*%
X7620000Y-71120000D03*
%TD*%
%TO.C,REF\u002A\u002A*%
X17780000Y-58420000D03*
%TD*%
%TO.C,REF\u002A\u002A*%
X7620000Y-66040000D03*
%TD*%
%TO.C,REF\u002A\u002A*%
X17780000Y-66040000D03*
%TD*%
%TO.C,REF\u002A\u002A*%
X5080000Y-68580000D03*
%TD*%
%TO.C,REF\u002A\u002A*%
X7620000Y-73660000D03*
%TD*%
%TO.C,REF\u002A\u002A*%
X2540000Y-63500000D03*
%TD*%
%TO.C,REF\u002A\u002A*%
X20320000Y-71120000D03*
%TD*%
%TO.C,REF\u002A\u002A*%
X10160000Y-66040000D03*
%TD*%
%TO.C,REF\u002A\u002A*%
X12700000Y-68580000D03*
%TD*%
%TO.C,REF\u002A\u002A*%
X2540000Y-68580000D03*
%TD*%
%TO.C,REF\u002A\u002A*%
X2540000Y-71120000D03*
%TD*%
%TO.C,REF\u002A\u002A*%
X15240000Y-73660000D03*
%TD*%
%TO.C,REF\u002A\u002A*%
X12700000Y-66040000D03*
%TD*%
%TO.C,REF\u002A\u002A*%
X17780000Y-71120000D03*
%TD*%
%TO.C,REF\u002A\u002A*%
X10160000Y-68580000D03*
%TD*%
%TO.C,REF\u002A\u002A*%
X15240000Y-68580000D03*
%TD*%
%TO.C,REF\u002A\u002A*%
X5080000Y-73660000D03*
%TD*%
%TO.C,REF\u002A\u002A*%
X10160000Y-73660000D03*
%TD*%
%TO.C,REF\u002A\u002A*%
X2540000Y-66040000D03*
%TD*%
%TO.C,REF\u002A\u002A*%
X5080000Y-66040000D03*
%TD*%
%TO.C,REF\u002A\u002A*%
X12700000Y-73660000D03*
%TD*%
%TO.C,REF\u002A\u002A*%
X5080000Y-71120000D03*
%TD*%
%TO.C,REF\u002A\u002A*%
X20320000Y-66040000D03*
%TD*%
%TO.C,REF\u002A\u002A*%
X17780000Y-68580000D03*
%TD*%
%TO.C,REF\u002A\u002A*%
X20320000Y-63500000D03*
%TD*%
%TO.C,REF\u002A\u002A*%
X15240000Y-60960000D03*
%TD*%
%TO.C,REF\u002A\u002A*%
X20320000Y-60960000D03*
%TD*%
%TO.C,REF\u002A\u002A*%
X12700000Y-60960000D03*
%TD*%
%TO.C,REF\u002A\u002A*%
X17780000Y-73660000D03*
%TD*%
%TO.C,REF\u002A\u002A*%
X15240000Y-66040000D03*
%TD*%
%TO.C,REF\u002A\u002A*%
X10160000Y-60960000D03*
%TD*%
%TO.C,REF\u002A\u002A*%
X5080000Y-55880000D03*
%TD*%
%TO.C,REF\u002A\u002A*%
X20320000Y-68580000D03*
%TD*%
%TO.C,REF\u002A\u002A*%
X10160000Y-55880000D03*
%TD*%
%TO.C,REF\u002A\u002A*%
X10160000Y-63500000D03*
%TD*%
%TO.C,REF\u002A\u002A*%
X7620000Y-68580000D03*
%TD*%
%TO.C,REF\u002A\u002A*%
X2540000Y-60960000D03*
%TD*%
%TO.C,REF\u002A\u002A*%
X2540000Y-58420000D03*
%TD*%
%TO.C,REF\u002A\u002A*%
X15240000Y-58420000D03*
%TD*%
%TO.C,REF\u002A\u002A*%
X7620000Y-58420000D03*
%TD*%
%TO.C,REF\u002A\u002A*%
X12700000Y-58420000D03*
%TD*%
%TO.C,REF\u002A\u002A*%
X15240000Y-55880000D03*
%TD*%
%TO.C,REF\u002A\u002A*%
X7620000Y-63500000D03*
%TD*%
%TO.C,REF\u002A\u002A*%
X17780000Y-60960000D03*
%TD*%
%TO.C,REF\u002A\u002A*%
X5080000Y-60960000D03*
%TD*%
%TO.C,REF\u002A\u002A*%
X15240000Y-63500000D03*
%TD*%
%TO.C,REF\u002A\u002A*%
X10160000Y-58420000D03*
%TD*%
%TO.C,REF\u002A\u002A*%
X17780000Y-63500000D03*
%TD*%
%TO.C,REF\u002A\u002A*%
X12700000Y-55880000D03*
%TD*%
%TO.C,REF\u002A\u002A*%
X5080000Y-58420000D03*
%TD*%
%TO.C,REF\u002A\u002A*%
X7620000Y-60960000D03*
%TD*%
%TO.C,REF\u002A\u002A*%
X12700000Y-63500000D03*
%TD*%
%TO.C,REF\u002A\u002A*%
X20320000Y-58420000D03*
%TD*%
%TO.C,REF\u002A\u002A*%
X17780000Y-55880000D03*
%TD*%
%TO.C,REF\u002A\u002A*%
X20320000Y-55880000D03*
%TD*%
%TO.C,REF\u002A\u002A*%
X2540000Y-55880000D03*
%TD*%
%TO.C,REF\u002A\u002A*%
X7620000Y-55880000D03*
%TD*%
%TO.C,REF\u002A\u002A*%
X5080000Y-63500000D03*
%TD*%
%TO.C,REF\u002A\u002A*%
X15240000Y-50800000D03*
%TD*%
%TO.C,REF\u002A\u002A*%
X10160000Y-50800000D03*
%TD*%
%TO.C,REF\u002A\u002A*%
X10160000Y-53340000D03*
%TD*%
%TO.C,REF\u002A\u002A*%
X12700000Y-50800000D03*
%TD*%
%TO.C,REF\u002A\u002A*%
X2540000Y-48260000D03*
%TD*%
%TO.C,REF\u002A\u002A*%
X17780000Y-50800000D03*
%TD*%
%TO.C,REF\u002A\u002A*%
X10160000Y-45720000D03*
%TD*%
%TO.C,REF\u002A\u002A*%
X5080000Y-53340000D03*
%TD*%
%TO.C,REF\u002A\u002A*%
X15240000Y-53340000D03*
%TD*%
%TO.C,REF\u002A\u002A*%
X20320000Y-50800000D03*
%TD*%
%TO.C,REF\u002A\u002A*%
X7620000Y-45720000D03*
%TD*%
%TO.C,REF\u002A\u002A*%
X2540000Y-53340000D03*
%TD*%
%TO.C,REF\u002A\u002A*%
X12700000Y-53340000D03*
%TD*%
%TO.C,REF\u002A\u002A*%
X5080000Y-50800000D03*
%TD*%
%TO.C,REF\u002A\u002A*%
X17780000Y-53340000D03*
%TD*%
%TO.C,REF\u002A\u002A*%
X20320000Y-48260000D03*
%TD*%
%TO.C,REF\u002A\u002A*%
X15240000Y-45720000D03*
%TD*%
%TO.C,REF\u002A\u002A*%
X20320000Y-53340000D03*
%TD*%
%TO.C,REF\u002A\u002A*%
X12700000Y-45720000D03*
%TD*%
%TO.C,REF\u002A\u002A*%
X7620000Y-50800000D03*
%TD*%
%TO.C,REF\u002A\u002A*%
X2540000Y-50800000D03*
%TD*%
%TO.C,REF\u002A\u002A*%
X7620000Y-53340000D03*
%TD*%
%TO.C,REF\u002A\u002A*%
X5080000Y-20320000D03*
%TD*%
%TO.C,REF\u002A\u002A*%
X5080000Y-15240000D03*
%TD*%
%TO.C,REF\u002A\u002A*%
X12700000Y-15240000D03*
%TD*%
%TO.C,REF\u002A\u002A*%
X12700000Y-17780000D03*
%TD*%
%TO.C,REF\u002A\u002A*%
X17780000Y-22860000D03*
%TD*%
%TO.C,REF\u002A\u002A*%
X2540000Y-15240000D03*
%TD*%
%TO.C,REF\u002A\u002A*%
X2540000Y-20320000D03*
%TD*%
%TO.C,REF\u002A\u002A*%
X15240000Y-22860000D03*
%TD*%
%TO.C,REF\u002A\u002A*%
X12700000Y-22860000D03*
%TD*%
%TO.C,REF\u002A\u002A*%
X5080000Y-22860000D03*
%TD*%
%TO.C,REF\u002A\u002A*%
X20320000Y-15240000D03*
%TD*%
%TO.C,REF\u002A\u002A*%
X7620000Y-17780000D03*
%TD*%
%TO.C,REF\u002A\u002A*%
X10160000Y-22860000D03*
%TD*%
%TO.C,REF\u002A\u002A*%
X10160000Y-15240000D03*
%TD*%
%TO.C,REF\u002A\u002A*%
X15240000Y-17780000D03*
%TD*%
%TO.C,REF\u002A\u002A*%
X2540000Y-17780000D03*
%TD*%
%TO.C,REF\u002A\u002A*%
X20320000Y-17780000D03*
%TD*%
%TO.C,REF\u002A\u002A*%
X15240000Y-15240000D03*
%TD*%
%TO.C,REF\u002A\u002A*%
X10160000Y-17780000D03*
%TD*%
%TO.C,REF\u002A\u002A*%
X17780000Y-20320000D03*
%TD*%
%TO.C,REF\u002A\u002A*%
X17780000Y-17780000D03*
%TD*%
%TO.C,REF\u002A\u002A*%
X10160000Y-38100000D03*
%TD*%
%TO.C,REF\u002A\u002A*%
X2540000Y-38100000D03*
%TD*%
%TO.C,REF\u002A\u002A*%
X5080000Y-33020000D03*
%TD*%
%TO.C,REF\u002A\u002A*%
X15240000Y-38100000D03*
%TD*%
%TO.C,REF\u002A\u002A*%
X2540000Y-33020000D03*
%TD*%
%TO.C,REF\u002A\u002A*%
X20320000Y-33020000D03*
%TD*%
%TO.C,REF\u002A\u002A*%
X17780000Y-30480000D03*
%TD*%
%TO.C,REF\u002A\u002A*%
X15240000Y-35560000D03*
%TD*%
%TO.C,REF\u002A\u002A*%
X10160000Y-30480000D03*
%TD*%
%TO.C,REF\u002A\u002A*%
X20320000Y-35560000D03*
%TD*%
%TO.C,REF\u002A\u002A*%
X5080000Y-30480000D03*
%TD*%
%TO.C,REF\u002A\u002A*%
X20320000Y-38100000D03*
%TD*%
%TO.C,REF\u002A\u002A*%
X10160000Y-35560000D03*
%TD*%
%TO.C,REF\u002A\u002A*%
X12700000Y-35560000D03*
%TD*%
%TO.C,REF\u002A\u002A*%
X17780000Y-33020000D03*
%TD*%
%TO.C,REF\u002A\u002A*%
X7620000Y-38100000D03*
%TD*%
%TO.C,REF\u002A\u002A*%
X12700000Y-38100000D03*
%TD*%
%TO.C,REF\u002A\u002A*%
X15240000Y-30480000D03*
%TD*%
%TO.C,REF\u002A\u002A*%
X15240000Y-33020000D03*
%TD*%
%TO.C,REF\u002A\u002A*%
X7620000Y-33020000D03*
%TD*%
%TO.C,REF\u002A\u002A*%
X2540000Y-35560000D03*
%TD*%
%TO.C,REF\u002A\u002A*%
X7620000Y-35560000D03*
%TD*%
%TO.C,REF\u002A\u002A*%
X10160000Y-33020000D03*
%TD*%
%TO.C,REF\u002A\u002A*%
X20320000Y-30480000D03*
%TD*%
%TO.C,REF\u002A\u002A*%
X12700000Y-33020000D03*
%TD*%
%TO.C,REF\u002A\u002A*%
X2540000Y-30480000D03*
%TD*%
%TO.C,REF\u002A\u002A*%
X17780000Y-35560000D03*
%TD*%
%TO.C,REF\u002A\u002A*%
X5080000Y-35560000D03*
%TD*%
%TO.C,REF\u002A\u002A*%
X12700000Y-30480000D03*
%TD*%
%TO.C,REF\u002A\u002A*%
X15240000Y-25400000D03*
%TD*%
%TO.C,REF\u002A\u002A*%
X10160000Y-25400000D03*
%TD*%
%TO.C,REF\u002A\u002A*%
X5080000Y-38100000D03*
%TD*%
%TO.C,REF\u002A\u002A*%
X10160000Y-27940000D03*
%TD*%
%TO.C,REF\u002A\u002A*%
X20320000Y-25400000D03*
%TD*%
%TO.C,REF\u002A\u002A*%
X7620000Y-27940000D03*
%TD*%
%TO.C,REF\u002A\u002A*%
X7620000Y-30480000D03*
%TD*%
%TO.C,REF\u002A\u002A*%
X12700000Y-27940000D03*
%TD*%
%TO.C,REF\u002A\u002A*%
X15240000Y-27940000D03*
%TD*%
%TO.C,REF\u002A\u002A*%
X20320000Y-27940000D03*
%TD*%
%TO.C,REF\u002A\u002A*%
X17780000Y-38100000D03*
%TD*%
%TO.C,REF\u002A\u002A*%
X12700000Y-25400000D03*
%TD*%
%TO.C,REF\u002A\u002A*%
X5080000Y-27940000D03*
%TD*%
%TO.C,REF\u002A\u002A*%
X2540000Y-22860000D03*
%TD*%
%TO.C,REF\u002A\u002A*%
X17780000Y-25400000D03*
%TD*%
%TO.C,REF\u002A\u002A*%
X10160000Y-20320000D03*
%TD*%
%TO.C,REF\u002A\u002A*%
X7620000Y-20320000D03*
%TD*%
%TO.C,REF\u002A\u002A*%
X7620000Y-15240000D03*
%TD*%
%TO.C,REF\u002A\u002A*%
X5080000Y-17780000D03*
%TD*%
%TO.C,REF\u002A\u002A*%
X15240000Y-20320000D03*
%TD*%
%TO.C,REF\u002A\u002A*%
X17780000Y-15240000D03*
%TD*%
%TO.C,REF\u002A\u002A*%
X12700000Y-20320000D03*
%TD*%
%TO.C,REF\u002A\u002A*%
X20320000Y-22860000D03*
%TD*%
%TO.C,REF\u002A\u002A*%
X2540000Y-27940000D03*
%TD*%
%TO.C,REF\u002A\u002A*%
X7620000Y-22860000D03*
%TD*%
%TO.C,REF\u002A\u002A*%
X20320000Y-20320000D03*
%TD*%
%TO.C,REF\u002A\u002A*%
X2540000Y-25400000D03*
%TD*%
%TO.C,REF\u002A\u002A*%
X5080000Y-25400000D03*
%TD*%
%TO.C,REF\u002A\u002A*%
X7620000Y-25400000D03*
%TD*%
%TO.C,REF\u002A\u002A*%
X17780000Y-27940000D03*
%TD*%
%TO.C,REF\u002A\u002A*%
X20320000Y-88900000D03*
%TD*%
%TO.C,REF\u002A\u002A*%
X10160000Y-88900000D03*
%TD*%
%TO.C,REF\u002A\u002A*%
X7620000Y-88900000D03*
%TD*%
%TO.C,REF\u002A\u002A*%
X12700000Y-88900000D03*
%TD*%
%TO.C,REF\u002A\u002A*%
X15240000Y-88900000D03*
%TD*%
%TO.C,REF\u002A\u002A*%
X17780000Y-88900000D03*
%TD*%
%TO.C,REF\u002A\u002A*%
X5080000Y-88900000D03*
%TD*%
%TO.C,REF\u002A\u002A*%
X2540000Y-88900000D03*
%TD*%
%TO.C,C2*%
G36*
G01*
X69225000Y-28243750D02*
X69225000Y-28756250D01*
G75*
G02*
X69006250Y-28975000I-218750J0D01*
G01*
X68568750Y-28975000D01*
G75*
G02*
X68350000Y-28756250I0J218750D01*
G01*
X68350000Y-28243750D01*
G75*
G02*
X68568750Y-28025000I218750J0D01*
G01*
X69006250Y-28025000D01*
G75*
G02*
X69225000Y-28243750I0J-218750D01*
G01*
G37*
G36*
G01*
X67650000Y-28243750D02*
X67650000Y-28756250D01*
G75*
G02*
X67431250Y-28975000I-218750J0D01*
G01*
X66993750Y-28975000D01*
G75*
G02*
X66775000Y-28756250I0J218750D01*
G01*
X66775000Y-28243750D01*
G75*
G02*
X66993750Y-28025000I218750J0D01*
G01*
X67431250Y-28025000D01*
G75*
G02*
X67650000Y-28243750I0J-218750D01*
G01*
G37*
%TD*%
%TO.C,C3*%
G36*
G01*
X67850000Y-23756250D02*
X67850000Y-23243750D01*
G75*
G02*
X68068750Y-23025000I218750J0D01*
G01*
X68506250Y-23025000D01*
G75*
G02*
X68725000Y-23243750I0J-218750D01*
G01*
X68725000Y-23756250D01*
G75*
G02*
X68506250Y-23975000I-218750J0D01*
G01*
X68068750Y-23975000D01*
G75*
G02*
X67850000Y-23756250I0J218750D01*
G01*
G37*
G36*
G01*
X66275000Y-23756250D02*
X66275000Y-23243750D01*
G75*
G02*
X66493750Y-23025000I218750J0D01*
G01*
X66931250Y-23025000D01*
G75*
G02*
X67150000Y-23243750I0J-218750D01*
G01*
X67150000Y-23756250D01*
G75*
G02*
X66931250Y-23975000I-218750J0D01*
G01*
X66493750Y-23975000D01*
G75*
G02*
X66275000Y-23756250I0J218750D01*
G01*
G37*
%TD*%
%TO.C,C8*%
G36*
G01*
X55650000Y-28243750D02*
X55650000Y-28756250D01*
G75*
G02*
X55431250Y-28975000I-218750J0D01*
G01*
X54993750Y-28975000D01*
G75*
G02*
X54775000Y-28756250I0J218750D01*
G01*
X54775000Y-28243750D01*
G75*
G02*
X54993750Y-28025000I218750J0D01*
G01*
X55431250Y-28025000D01*
G75*
G02*
X55650000Y-28243750I0J-218750D01*
G01*
G37*
G36*
G01*
X57225000Y-28243750D02*
X57225000Y-28756250D01*
G75*
G02*
X57006250Y-28975000I-218750J0D01*
G01*
X56568750Y-28975000D01*
G75*
G02*
X56350000Y-28756250I0J218750D01*
G01*
X56350000Y-28243750D01*
G75*
G02*
X56568750Y-28025000I218750J0D01*
G01*
X57006250Y-28025000D01*
G75*
G02*
X57225000Y-28243750I0J-218750D01*
G01*
G37*
%TD*%
%TO.C,C11*%
G36*
G01*
X55850000Y-23756250D02*
X55850000Y-23243750D01*
G75*
G02*
X56068750Y-23025000I218750J0D01*
G01*
X56506250Y-23025000D01*
G75*
G02*
X56725000Y-23243750I0J-218750D01*
G01*
X56725000Y-23756250D01*
G75*
G02*
X56506250Y-23975000I-218750J0D01*
G01*
X56068750Y-23975000D01*
G75*
G02*
X55850000Y-23756250I0J218750D01*
G01*
G37*
G36*
G01*
X54275000Y-23756250D02*
X54275000Y-23243750D01*
G75*
G02*
X54493750Y-23025000I218750J0D01*
G01*
X54931250Y-23025000D01*
G75*
G02*
X55150000Y-23243750I0J-218750D01*
G01*
X55150000Y-23756250D01*
G75*
G02*
X54931250Y-23975000I-218750J0D01*
G01*
X54493750Y-23975000D01*
G75*
G02*
X54275000Y-23756250I0J218750D01*
G01*
G37*
%TD*%
%TO.C,C16*%
G36*
G01*
X43650000Y-28243750D02*
X43650000Y-28756250D01*
G75*
G02*
X43431250Y-28975000I-218750J0D01*
G01*
X42993750Y-28975000D01*
G75*
G02*
X42775000Y-28756250I0J218750D01*
G01*
X42775000Y-28243750D01*
G75*
G02*
X42993750Y-28025000I218750J0D01*
G01*
X43431250Y-28025000D01*
G75*
G02*
X43650000Y-28243750I0J-218750D01*
G01*
G37*
G36*
G01*
X45225000Y-28243750D02*
X45225000Y-28756250D01*
G75*
G02*
X45006250Y-28975000I-218750J0D01*
G01*
X44568750Y-28975000D01*
G75*
G02*
X44350000Y-28756250I0J218750D01*
G01*
X44350000Y-28243750D01*
G75*
G02*
X44568750Y-28025000I218750J0D01*
G01*
X45006250Y-28025000D01*
G75*
G02*
X45225000Y-28243750I0J-218750D01*
G01*
G37*
%TD*%
%TO.C,C18*%
G36*
G01*
X42275000Y-23756250D02*
X42275000Y-23243750D01*
G75*
G02*
X42493750Y-23025000I218750J0D01*
G01*
X42931250Y-23025000D01*
G75*
G02*
X43150000Y-23243750I0J-218750D01*
G01*
X43150000Y-23756250D01*
G75*
G02*
X42931250Y-23975000I-218750J0D01*
G01*
X42493750Y-23975000D01*
G75*
G02*
X42275000Y-23756250I0J218750D01*
G01*
G37*
G36*
G01*
X43850000Y-23756250D02*
X43850000Y-23243750D01*
G75*
G02*
X44068750Y-23025000I218750J0D01*
G01*
X44506250Y-23025000D01*
G75*
G02*
X44725000Y-23243750I0J-218750D01*
G01*
X44725000Y-23756250D01*
G75*
G02*
X44506250Y-23975000I-218750J0D01*
G01*
X44068750Y-23975000D01*
G75*
G02*
X43850000Y-23756250I0J218750D01*
G01*
G37*
%TD*%
%TO.C,C25*%
G36*
G01*
X33225000Y-28243750D02*
X33225000Y-28756250D01*
G75*
G02*
X33006250Y-28975000I-218750J0D01*
G01*
X32568750Y-28975000D01*
G75*
G02*
X32350000Y-28756250I0J218750D01*
G01*
X32350000Y-28243750D01*
G75*
G02*
X32568750Y-28025000I218750J0D01*
G01*
X33006250Y-28025000D01*
G75*
G02*
X33225000Y-28243750I0J-218750D01*
G01*
G37*
G36*
G01*
X31650000Y-28243750D02*
X31650000Y-28756250D01*
G75*
G02*
X31431250Y-28975000I-218750J0D01*
G01*
X30993750Y-28975000D01*
G75*
G02*
X30775000Y-28756250I0J218750D01*
G01*
X30775000Y-28243750D01*
G75*
G02*
X30993750Y-28025000I218750J0D01*
G01*
X31431250Y-28025000D01*
G75*
G02*
X31650000Y-28243750I0J-218750D01*
G01*
G37*
%TD*%
%TO.C,C26*%
G36*
G01*
X30275000Y-23756250D02*
X30275000Y-23243750D01*
G75*
G02*
X30493750Y-23025000I218750J0D01*
G01*
X30931250Y-23025000D01*
G75*
G02*
X31150000Y-23243750I0J-218750D01*
G01*
X31150000Y-23756250D01*
G75*
G02*
X30931250Y-23975000I-218750J0D01*
G01*
X30493750Y-23975000D01*
G75*
G02*
X30275000Y-23756250I0J218750D01*
G01*
G37*
G36*
G01*
X31850000Y-23756250D02*
X31850000Y-23243750D01*
G75*
G02*
X32068750Y-23025000I218750J0D01*
G01*
X32506250Y-23025000D01*
G75*
G02*
X32725000Y-23243750I0J-218750D01*
G01*
X32725000Y-23756250D01*
G75*
G02*
X32506250Y-23975000I-218750J0D01*
G01*
X32068750Y-23975000D01*
G75*
G02*
X31850000Y-23756250I0J218750D01*
G01*
G37*
%TD*%
%TO.C,C44*%
G36*
G01*
X52350000Y-85256250D02*
X52350000Y-84743750D01*
G75*
G02*
X52568750Y-84525000I218750J0D01*
G01*
X53006250Y-84525000D01*
G75*
G02*
X53225000Y-84743750I0J-218750D01*
G01*
X53225000Y-85256250D01*
G75*
G02*
X53006250Y-85475000I-218750J0D01*
G01*
X52568750Y-85475000D01*
G75*
G02*
X52350000Y-85256250I0J218750D01*
G01*
G37*
G36*
G01*
X50775000Y-85256250D02*
X50775000Y-84743750D01*
G75*
G02*
X50993750Y-84525000I218750J0D01*
G01*
X51431250Y-84525000D01*
G75*
G02*
X51650000Y-84743750I0J-218750D01*
G01*
X51650000Y-85256250D01*
G75*
G02*
X51431250Y-85475000I-218750J0D01*
G01*
X50993750Y-85475000D01*
G75*
G02*
X50775000Y-85256250I0J218750D01*
G01*
G37*
%TD*%
%TO.C,C45*%
G36*
G01*
X66725000Y-89743750D02*
X66725000Y-90256250D01*
G75*
G02*
X66506250Y-90475000I-218750J0D01*
G01*
X66068750Y-90475000D01*
G75*
G02*
X65850000Y-90256250I0J218750D01*
G01*
X65850000Y-89743750D01*
G75*
G02*
X66068750Y-89525000I218750J0D01*
G01*
X66506250Y-89525000D01*
G75*
G02*
X66725000Y-89743750I0J-218750D01*
G01*
G37*
G36*
G01*
X65150000Y-89743750D02*
X65150000Y-90256250D01*
G75*
G02*
X64931250Y-90475000I-218750J0D01*
G01*
X64493750Y-90475000D01*
G75*
G02*
X64275000Y-90256250I0J218750D01*
G01*
X64275000Y-89743750D01*
G75*
G02*
X64493750Y-89525000I218750J0D01*
G01*
X64931250Y-89525000D01*
G75*
G02*
X65150000Y-89743750I0J-218750D01*
G01*
G37*
%TD*%
%TO.C,C47*%
G36*
G01*
X46225000Y-89743750D02*
X46225000Y-90256250D01*
G75*
G02*
X46006250Y-90475000I-218750J0D01*
G01*
X45568750Y-90475000D01*
G75*
G02*
X45350000Y-90256250I0J218750D01*
G01*
X45350000Y-89743750D01*
G75*
G02*
X45568750Y-89525000I218750J0D01*
G01*
X46006250Y-89525000D01*
G75*
G02*
X46225000Y-89743750I0J-218750D01*
G01*
G37*
G36*
G01*
X44650000Y-89743750D02*
X44650000Y-90256250D01*
G75*
G02*
X44431250Y-90475000I-218750J0D01*
G01*
X43993750Y-90475000D01*
G75*
G02*
X43775000Y-90256250I0J218750D01*
G01*
X43775000Y-89743750D01*
G75*
G02*
X43993750Y-89525000I218750J0D01*
G01*
X44431250Y-89525000D01*
G75*
G02*
X44650000Y-89743750I0J-218750D01*
G01*
G37*
%TD*%
%TO.C,C48*%
G36*
G01*
X43775000Y-85256250D02*
X43775000Y-84743750D01*
G75*
G02*
X43993750Y-84525000I218750J0D01*
G01*
X44431250Y-84525000D01*
G75*
G02*
X44650000Y-84743750I0J-218750D01*
G01*
X44650000Y-85256250D01*
G75*
G02*
X44431250Y-85475000I-218750J0D01*
G01*
X43993750Y-85475000D01*
G75*
G02*
X43775000Y-85256250I0J218750D01*
G01*
G37*
G36*
G01*
X45350000Y-85256250D02*
X45350000Y-84743750D01*
G75*
G02*
X45568750Y-84525000I218750J0D01*
G01*
X46006250Y-84525000D01*
G75*
G02*
X46225000Y-84743750I0J-218750D01*
G01*
X46225000Y-85256250D01*
G75*
G02*
X46006250Y-85475000I-218750J0D01*
G01*
X45568750Y-85475000D01*
G75*
G02*
X45350000Y-85256250I0J218750D01*
G01*
G37*
%TD*%
%TO.C,C49*%
G36*
G01*
X65350000Y-63756250D02*
X65350000Y-63243750D01*
G75*
G02*
X65568750Y-63025000I218750J0D01*
G01*
X66006250Y-63025000D01*
G75*
G02*
X66225000Y-63243750I0J-218750D01*
G01*
X66225000Y-63756250D01*
G75*
G02*
X66006250Y-63975000I-218750J0D01*
G01*
X65568750Y-63975000D01*
G75*
G02*
X65350000Y-63756250I0J218750D01*
G01*
G37*
G36*
G01*
X63775000Y-63756250D02*
X63775000Y-63243750D01*
G75*
G02*
X63993750Y-63025000I218750J0D01*
G01*
X64431250Y-63025000D01*
G75*
G02*
X64650000Y-63243750I0J-218750D01*
G01*
X64650000Y-63756250D01*
G75*
G02*
X64431250Y-63975000I-218750J0D01*
G01*
X63993750Y-63975000D01*
G75*
G02*
X63775000Y-63756250I0J218750D01*
G01*
G37*
%TD*%
%TO.C,C50*%
G36*
G01*
X58650000Y-63243750D02*
X58650000Y-63756250D01*
G75*
G02*
X58431250Y-63975000I-218750J0D01*
G01*
X57993750Y-63975000D01*
G75*
G02*
X57775000Y-63756250I0J218750D01*
G01*
X57775000Y-63243750D01*
G75*
G02*
X57993750Y-63025000I218750J0D01*
G01*
X58431250Y-63025000D01*
G75*
G02*
X58650000Y-63243750I0J-218750D01*
G01*
G37*
G36*
G01*
X60225000Y-63243750D02*
X60225000Y-63756250D01*
G75*
G02*
X60006250Y-63975000I-218750J0D01*
G01*
X59568750Y-63975000D01*
G75*
G02*
X59350000Y-63756250I0J218750D01*
G01*
X59350000Y-63243750D01*
G75*
G02*
X59568750Y-63025000I218750J0D01*
G01*
X60006250Y-63025000D01*
G75*
G02*
X60225000Y-63243750I0J-218750D01*
G01*
G37*
%TD*%
%TO.C,C51*%
G36*
G01*
X55993750Y-59525000D02*
X56506250Y-59525000D01*
G75*
G02*
X56725000Y-59743750I0J-218750D01*
G01*
X56725000Y-60181250D01*
G75*
G02*
X56506250Y-60400000I-218750J0D01*
G01*
X55993750Y-60400000D01*
G75*
G02*
X55775000Y-60181250I0J218750D01*
G01*
X55775000Y-59743750D01*
G75*
G02*
X55993750Y-59525000I218750J0D01*
G01*
G37*
G36*
G01*
X55993750Y-61100000D02*
X56506250Y-61100000D01*
G75*
G02*
X56725000Y-61318750I0J-218750D01*
G01*
X56725000Y-61756250D01*
G75*
G02*
X56506250Y-61975000I-218750J0D01*
G01*
X55993750Y-61975000D01*
G75*
G02*
X55775000Y-61756250I0J218750D01*
G01*
X55775000Y-61318750D01*
G75*
G02*
X55993750Y-61100000I218750J0D01*
G01*
G37*
%TD*%
%TO.C,C52*%
G36*
G01*
X67493750Y-55100000D02*
X68006250Y-55100000D01*
G75*
G02*
X68225000Y-55318750I0J-218750D01*
G01*
X68225000Y-55756250D01*
G75*
G02*
X68006250Y-55975000I-218750J0D01*
G01*
X67493750Y-55975000D01*
G75*
G02*
X67275000Y-55756250I0J218750D01*
G01*
X67275000Y-55318750D01*
G75*
G02*
X67493750Y-55100000I218750J0D01*
G01*
G37*
G36*
G01*
X67493750Y-53525000D02*
X68006250Y-53525000D01*
G75*
G02*
X68225000Y-53743750I0J-218750D01*
G01*
X68225000Y-54181250D01*
G75*
G02*
X68006250Y-54400000I-218750J0D01*
G01*
X67493750Y-54400000D01*
G75*
G02*
X67275000Y-54181250I0J218750D01*
G01*
X67275000Y-53743750D01*
G75*
G02*
X67493750Y-53525000I218750J0D01*
G01*
G37*
%TD*%
%TO.C,C53*%
G36*
G01*
X59350000Y-52256250D02*
X59350000Y-51743750D01*
G75*
G02*
X59568750Y-51525000I218750J0D01*
G01*
X60006250Y-51525000D01*
G75*
G02*
X60225000Y-51743750I0J-218750D01*
G01*
X60225000Y-52256250D01*
G75*
G02*
X60006250Y-52475000I-218750J0D01*
G01*
X59568750Y-52475000D01*
G75*
G02*
X59350000Y-52256250I0J218750D01*
G01*
G37*
G36*
G01*
X57775000Y-52256250D02*
X57775000Y-51743750D01*
G75*
G02*
X57993750Y-51525000I218750J0D01*
G01*
X58431250Y-51525000D01*
G75*
G02*
X58650000Y-51743750I0J-218750D01*
G01*
X58650000Y-52256250D01*
G75*
G02*
X58431250Y-52475000I-218750J0D01*
G01*
X57993750Y-52475000D01*
G75*
G02*
X57775000Y-52256250I0J218750D01*
G01*
G37*
%TD*%
%TO.C,D7*%
G36*
G01*
X65275000Y-50006250D02*
X65275000Y-49493750D01*
G75*
G02*
X65493750Y-49275000I218750J0D01*
G01*
X65931250Y-49275000D01*
G75*
G02*
X66150000Y-49493750I0J-218750D01*
G01*
X66150000Y-50006250D01*
G75*
G02*
X65931250Y-50225000I-218750J0D01*
G01*
X65493750Y-50225000D01*
G75*
G02*
X65275000Y-50006250I0J218750D01*
G01*
G37*
G36*
G01*
X66850000Y-50006250D02*
X66850000Y-49493750D01*
G75*
G02*
X67068750Y-49275000I218750J0D01*
G01*
X67506250Y-49275000D01*
G75*
G02*
X67725000Y-49493750I0J-218750D01*
G01*
X67725000Y-50006250D01*
G75*
G02*
X67506250Y-50225000I-218750J0D01*
G01*
X67068750Y-50225000D01*
G75*
G02*
X66850000Y-50006250I0J218750D01*
G01*
G37*
%TD*%
D11*
%TO.C,H1*%
X3000000Y-3000000D03*
%TD*%
%TO.C,H2*%
X3000000Y-97000000D03*
%TD*%
%TO.C,H3*%
X97000000Y-97000000D03*
%TD*%
%TO.C,H4*%
X97000000Y-3000000D03*
%TD*%
D12*
%TO.C,J1*%
X51500000Y-96500000D03*
X49500000Y-96500000D03*
X47500000Y-96500000D03*
G36*
G01*
X44900000Y-97125001D02*
X44900000Y-95874999D01*
G75*
G02*
X45149999Y-95625000I249999J0D01*
G01*
X45850001Y-95625000D01*
G75*
G02*
X46100000Y-95874999I0J-249999D01*
G01*
X46100000Y-97125001D01*
G75*
G02*
X45850001Y-97375000I-249999J0D01*
G01*
X45149999Y-97375000D01*
G75*
G02*
X44900000Y-97125001I0J249999D01*
G01*
G37*
%TD*%
%TO.C,J2*%
G36*
G01*
X61900000Y-97125001D02*
X61900000Y-95874999D01*
G75*
G02*
X62149999Y-95625000I249999J0D01*
G01*
X62850001Y-95625000D01*
G75*
G02*
X63100000Y-95874999I0J-249999D01*
G01*
X63100000Y-97125001D01*
G75*
G02*
X62850001Y-97375000I-249999J0D01*
G01*
X62149999Y-97375000D01*
G75*
G02*
X61900000Y-97125001I0J249999D01*
G01*
G37*
X64500000Y-96500000D03*
X66500000Y-96500000D03*
X68500000Y-96500000D03*
%TD*%
%TO.C,J3*%
X35000000Y-96500000D03*
X33000000Y-96500000D03*
X31000000Y-96500000D03*
X29000000Y-96500000D03*
X27000000Y-96500000D03*
G36*
G01*
X24400000Y-97125001D02*
X24400000Y-95874999D01*
G75*
G02*
X24649999Y-95625000I249999J0D01*
G01*
X25350001Y-95625000D01*
G75*
G02*
X25600000Y-95874999I0J-249999D01*
G01*
X25600000Y-97125001D01*
G75*
G02*
X25350001Y-97375000I-249999J0D01*
G01*
X24649999Y-97375000D01*
G75*
G02*
X24400000Y-97125001I0J249999D01*
G01*
G37*
%TD*%
%TO.C,J6*%
G36*
G01*
X74000000Y-5250000D02*
X74000000Y-1750000D01*
G75*
G02*
X74250000Y-1500000I250000J0D01*
G01*
X77750000Y-1500000D01*
G75*
G02*
X78000000Y-1750000I0J-250000D01*
G01*
X78000000Y-5250000D01*
G75*
G02*
X77750000Y-5500000I-250000J0D01*
G01*
X74250000Y-5500000D01*
G75*
G02*
X74000000Y-5250000I0J250000D01*
G01*
G37*
%TD*%
D13*
%TO.C,J5*%
X85000000Y-98000000D03*
X83000000Y-98000000D03*
X81000000Y-98000000D03*
X79000000Y-98000000D03*
X85000000Y-96000000D03*
X83000000Y-96000000D03*
X81000000Y-96000000D03*
G36*
G01*
X78400000Y-96350001D02*
X78400000Y-95649999D01*
G75*
G02*
X78649999Y-95400000I249999J0D01*
G01*
X79350001Y-95400000D01*
G75*
G02*
X79600000Y-95649999I0J-249999D01*
G01*
X79600000Y-96350001D01*
G75*
G02*
X79350001Y-96600000I-249999J0D01*
G01*
X78649999Y-96600000D01*
G75*
G02*
X78400000Y-96350001I0J249999D01*
G01*
G37*
%TD*%
%TO.C,J8*%
G36*
G01*
X62000000Y-5250000D02*
X62000000Y-1750000D01*
G75*
G02*
X62250000Y-1500000I250000J0D01*
G01*
X65750000Y-1500000D01*
G75*
G02*
X66000000Y-1750000I0J-250000D01*
G01*
X66000000Y-5250000D01*
G75*
G02*
X65750000Y-5500000I-250000J0D01*
G01*
X62250000Y-5500000D01*
G75*
G02*
X62000000Y-5250000I0J250000D01*
G01*
G37*
%TD*%
%TO.C,J9*%
G36*
G01*
X50000000Y-5250000D02*
X50000000Y-1750000D01*
G75*
G02*
X50250000Y-1500000I250000J0D01*
G01*
X53750000Y-1500000D01*
G75*
G02*
X54000000Y-1750000I0J-250000D01*
G01*
X54000000Y-5250000D01*
G75*
G02*
X53750000Y-5500000I-250000J0D01*
G01*
X50250000Y-5500000D01*
G75*
G02*
X50000000Y-5250000I0J250000D01*
G01*
G37*
%TD*%
%TO.C,J10*%
G36*
G01*
X38000000Y-5250000D02*
X38000000Y-1750000D01*
G75*
G02*
X38250000Y-1500000I250000J0D01*
G01*
X41750000Y-1500000D01*
G75*
G02*
X42000000Y-1750000I0J-250000D01*
G01*
X42000000Y-5250000D01*
G75*
G02*
X41750000Y-5500000I-250000J0D01*
G01*
X38250000Y-5500000D01*
G75*
G02*
X38000000Y-5250000I0J250000D01*
G01*
G37*
%TD*%
%TO.C,J11*%
G36*
G01*
X26000000Y-5250000D02*
X26000000Y-1750000D01*
G75*
G02*
X26250000Y-1500000I250000J0D01*
G01*
X29750000Y-1500000D01*
G75*
G02*
X30000000Y-1750000I0J-250000D01*
G01*
X30000000Y-5250000D01*
G75*
G02*
X29750000Y-5500000I-250000J0D01*
G01*
X26250000Y-5500000D01*
G75*
G02*
X26000000Y-5250000I0J250000D01*
G01*
G37*
%TD*%
%TO.C,J7*%
G36*
G01*
X81000000Y-5250000D02*
X81000000Y-1750000D01*
G75*
G02*
X81250000Y-1500000I250000J0D01*
G01*
X84750000Y-1500000D01*
G75*
G02*
X85000000Y-1750000I0J-250000D01*
G01*
X85000000Y-5250000D01*
G75*
G02*
X84750000Y-5500000I-250000J0D01*
G01*
X81250000Y-5500000D01*
G75*
G02*
X81000000Y-5250000I0J250000D01*
G01*
G37*
%TD*%
M02*
